<svg width="32" height="32" xmlns="http://www.w3.org/2000/svg" viewBox="0 0 216 216">
  <path d="M108 0C48.35 0 0 48.35 0 108c0 29.82 12.09 56.82 31.63 76.37l-20.57 20.57C6.98 209.02 9.87 216 15.64 216H108c59.65 0 108-48.35 108-108S167.65 0 108 0Z" fill="#ff4500"/>
  <circle cx="169.22" cy="106.98" r="25.22" fill="#fff"/>
  <circle cx="46.78" cy="106.98" r="25.22" fill="#fff"/>
  <ellipse cx="108.06" cy="128.64" rx="72" ry="54" fill="#fff"/>
  <ellipse cx="86.78" cy="123.48" rx="13" ry="14" fill="#ff4500"/>
  <ellipse cx="129.35" cy="123.48" rx="13" ry="14" fill="#ff4500"/>
  <path d="M108.06 142.92c-8.76 0-17.16.43-24.92 1.22-1.33.13-2.17 1.51-1.65 2.74 4.35 10.39 14.61 17.69 26.57 17.69s22.23-7.3 26.57-17.69c.52-1.23-.33-2.61-1.65-2.74-7.77-.79-16.16-1.22-24.92-1.22Z" fill="#000"/>
  <circle cx="147.49" cy="49.43" r="17.87" fill="#fff"/>
  <path d="M107.8 76.92c-2.14 0-3.87-.89-3.87-2.27 0-16.01 13.03-29.04 29.04-29.04 2.14 0 3.87 1.73 3.87 3.87s-1.73 3.87-3.87 3.87c-11.74 0-21.29 9.55-21.29 21.29 0 1.38-1.73 2.27-3.87 2.27Z" fill="#000"/>
</svg>
